<?xml version="1.0" encoding="utf-8" standalone="no"?>
<!DOCTYPE svg PUBLIC "-//W3C//DTD SVG 1.1//EN"
  "http://www.w3.org/Graphics/SVG/1.1/DTD/svg11.dtd">
<svg xmlns:xlink="http://www.w3.org/1999/xlink" width="504pt" height="360pt" viewBox="0 0 504 360" xmlns="http://www.w3.org/2000/svg" version="1.1">
 <metadata>
  <rdf:RDF xmlns:dc="http://purl.org/dc/elements/1.1/" xmlns:cc="http://creativecommons.org/ns#" xmlns:rdf="http://www.w3.org/1999/02/22-rdf-syntax-ns#">
   <cc:Work>
    <dc:type rdf:resource="http://purl.org/dc/dcmitype/StillImage"/>
    <dc:date>2025-08-21T18:58:20.453688</dc:date>
    <dc:format>image/svg+xml</dc:format>
    <dc:creator>
     <cc:Agent>
      <dc:title>Matplotlib v3.10.0, https://matplotlib.org/</dc:title>
     </cc:Agent>
    </dc:creator>
   </cc:Work>
  </rdf:RDF>
 </metadata>
 <defs>
  <style type="text/css">*{stroke-linejoin: round; stroke-linecap: butt}</style>
 </defs>
 <g id="figure_1">
  <g id="patch_1">
   <path d="M 0 360 
L 504 360 
L 504 0 
L 0 0 
z
" style="fill: #ffffff"/>
  </g>
  <g id="axes_1">
   <g id="patch_2">
    <path d="M 63 320.4 
L 453.6 320.4 
L 453.6 43.2 
L 63 43.2 
z
" style="fill: #ffffff"/>
   </g>
   <g id="matplotlib.axis_1">
    <g id="xtick_1">
     <g id="line2d_1">
      <path d="M 194.052017 320.4 
L 194.052017 43.2 
" clip-path="url(#p552f99cc5f)" style="fill: none; stroke: #cccccc; stroke-width: 0.8; stroke-linecap: round"/>
     </g>
     <g id="text_1">
      <!-- $-1.96$ -->
      <g style="fill: #262626" transform="translate(178.702017 334.557813) scale(0.1 -0.1)">
       <defs>
        <path id="DejaVuSans-2212" d="M 678 2272 
L 4684 2272 
L 4684 1741 
L 678 1741 
L 678 2272 
z
" transform="scale(0.015625)"/>
        <path id="DejaVuSans-31" d="M 794 531 
L 1825 531 
L 1825 4091 
L 703 3866 
L 703 4441 
L 1819 4666 
L 2450 4666 
L 2450 531 
L 3481 531 
L 3481 0 
L 794 0 
L 794 531 
z
" transform="scale(0.015625)"/>
        <path id="DejaVuSans-2e" d="M 684 794 
L 1344 794 
L 1344 0 
L 684 0 
L 684 794 
z
" transform="scale(0.015625)"/>
        <path id="DejaVuSans-39" d="M 703 97 
L 703 672 
Q 941 559 1184 500 
Q 1428 441 1663 441 
Q 2288 441 2617 861 
Q 2947 1281 2994 2138 
Q 2813 1869 2534 1725 
Q 2256 1581 1919 1581 
Q 1219 1581 811 2004 
Q 403 2428 403 3163 
Q 403 3881 828 4315 
Q 1253 4750 1959 4750 
Q 2769 4750 3195 4129 
Q 3622 3509 3622 2328 
Q 3622 1225 3098 567 
Q 2575 -91 1691 -91 
Q 1453 -91 1209 -44 
Q 966 3 703 97 
z
M 1959 2075 
Q 2384 2075 2632 2365 
Q 2881 2656 2881 3163 
Q 2881 3666 2632 3958 
Q 2384 4250 1959 4250 
Q 1534 4250 1286 3958 
Q 1038 3666 1038 3163 
Q 1038 2656 1286 2365 
Q 1534 2075 1959 2075 
z
" transform="scale(0.015625)"/>
        <path id="DejaVuSans-36" d="M 2113 2584 
Q 1688 2584 1439 2293 
Q 1191 2003 1191 1497 
Q 1191 994 1439 701 
Q 1688 409 2113 409 
Q 2538 409 2786 701 
Q 3034 994 3034 1497 
Q 3034 2003 2786 2293 
Q 2538 2584 2113 2584 
z
M 3366 4563 
L 3366 3988 
Q 3128 4100 2886 4159 
Q 2644 4219 2406 4219 
Q 1781 4219 1451 3797 
Q 1122 3375 1075 2522 
Q 1259 2794 1537 2939 
Q 1816 3084 2150 3084 
Q 2853 3084 3261 2657 
Q 3669 2231 3669 1497 
Q 3669 778 3244 343 
Q 2819 -91 2113 -91 
Q 1303 -91 875 529 
Q 447 1150 447 2328 
Q 447 3434 972 4092 
Q 1497 4750 2381 4750 
Q 2619 4750 2861 4703 
Q 3103 4656 3366 4563 
z
" transform="scale(0.015625)"/>
       </defs>
       <use xlink:href="#DejaVuSans-2212" transform="translate(0 0.78125)"/>
       <use xlink:href="#DejaVuSans-31" transform="translate(83.789062 0.78125)"/>
       <use xlink:href="#DejaVuSans-2e" transform="translate(147.412109 0.78125)"/>
       <use xlink:href="#DejaVuSans-39" transform="translate(179.199219 0.78125)"/>
       <use xlink:href="#DejaVuSans-36" transform="translate(242.822266 0.78125)"/>
      </g>
     </g>
    </g>
    <g id="xtick_2">
     <g id="line2d_2">
      <path d="M 258.3 320.4 
L 258.3 43.2 
" clip-path="url(#p552f99cc5f)" style="fill: none; stroke: #cccccc; stroke-width: 0.8; stroke-linecap: round"/>
     </g>
     <g id="text_2">
      <!-- 0 -->
      <g style="fill: #262626" transform="translate(255.519531 334.557813) scale(0.1 -0.1)">
       <defs>
        <path id="ArialMT-30" d="M 266 2259 
Q 266 3072 433 3567 
Q 600 4063 929 4331 
Q 1259 4600 1759 4600 
Q 2128 4600 2406 4451 
Q 2684 4303 2865 4023 
Q 3047 3744 3150 3342 
Q 3253 2941 3253 2259 
Q 3253 1453 3087 958 
Q 2922 463 2592 192 
Q 2263 -78 1759 -78 
Q 1097 -78 719 397 
Q 266 969 266 2259 
z
M 844 2259 
Q 844 1131 1108 757 
Q 1372 384 1759 384 
Q 2147 384 2411 759 
Q 2675 1134 2675 2259 
Q 2675 3391 2411 3762 
Q 2147 4134 1753 4134 
Q 1366 4134 1134 3806 
Q 844 3388 844 2259 
z
" transform="scale(0.015625)"/>
       </defs>
       <use xlink:href="#ArialMT-30"/>
      </g>
     </g>
    </g>
    <g id="text_3">
     <!-- $x$ -->
     <g style="fill: #262626" transform="translate(255.3 347.703125) scale(0.1 -0.1)">
      <defs>
       <path id="DejaVuSans-Oblique-78" d="M 3841 3500 
L 2234 1784 
L 3219 0 
L 2559 0 
L 1819 1388 
L 531 0 
L -166 0 
L 1556 1844 
L 641 3500 
L 1300 3500 
L 1972 2234 
L 3144 3500 
L 3841 3500 
z
" transform="scale(0.015625)"/>
      </defs>
      <use xlink:href="#DejaVuSans-Oblique-78" transform="translate(0 0.3125)"/>
     </g>
    </g>
   </g>
   <g id="matplotlib.axis_2">
    <g id="text_4">
     <!-- $f(x)$ -->
     <g style="fill: #262626" transform="translate(57.0125 190.45) rotate(-90) scale(0.1 -0.1)">
      <defs>
       <path id="DejaVuSans-Oblique-66" d="M 3059 4863 
L 2969 4384 
L 2419 4384 
Q 2106 4384 1964 4261 
Q 1822 4138 1753 3809 
L 1691 3500 
L 2638 3500 
L 2553 3053 
L 1606 3053 
L 1013 0 
L 434 0 
L 1031 3053 
L 481 3053 
L 563 3500 
L 1113 3500 
L 1159 3744 
Q 1278 4363 1576 4613 
Q 1875 4863 2516 4863 
L 3059 4863 
z
" transform="scale(0.015625)"/>
       <path id="DejaVuSans-28" d="M 1984 4856 
Q 1566 4138 1362 3434 
Q 1159 2731 1159 2009 
Q 1159 1288 1364 580 
Q 1569 -128 1984 -844 
L 1484 -844 
Q 1016 -109 783 600 
Q 550 1309 550 2009 
Q 550 2706 781 3412 
Q 1013 4119 1484 4856 
L 1984 4856 
z
" transform="scale(0.015625)"/>
       <path id="DejaVuSans-29" d="M 513 4856 
L 1013 4856 
Q 1481 4119 1714 3412 
Q 1947 2706 1947 2009 
Q 1947 1309 1714 600 
Q 1481 -109 1013 -844 
L 513 -844 
Q 928 -128 1133 580 
Q 1338 1288 1338 2009 
Q 1338 2731 1133 3434 
Q 928 4138 513 4856 
z
" transform="scale(0.015625)"/>
      </defs>
      <use xlink:href="#DejaVuSans-Oblique-66" transform="translate(0 0.015625)"/>
      <use xlink:href="#DejaVuSans-28" transform="translate(35.205078 0.015625)"/>
      <use xlink:href="#DejaVuSans-Oblique-78" transform="translate(74.21875 0.015625)"/>
      <use xlink:href="#DejaVuSans-29" transform="translate(133.398438 0.015625)"/>
     </g>
    </g>
   </g>
   <g id="patch_3">
    <path d="M 63 320.4 
L 63 320.399016 
L 65.674531 320.398618 
L 68.349062 320.398067 
L 71.023593 320.397309 
L 73.698124 320.396273 
L 76.372655 320.39486 
L 79.047186 320.392946 
L 81.721717 320.390365 
L 84.396248 320.3869 
L 87.070779 320.382272 
L 89.74531 320.376122 
L 92.419841 320.367989 
L 95.094372 320.357286 
L 97.768903 320.343271 
L 100.443434 320.32501 
L 103.117964 320.301335 
L 105.792495 320.270792 
L 108.467026 320.231586 
L 111.141557 320.181511 
L 113.816088 320.117872 
L 116.490619 320.0374 
L 119.16515 319.936156 
L 121.839681 319.809419 
L 124.514212 319.651569 
L 127.188743 319.455967 
L 129.863274 319.214813 
L 132.537805 318.919016 
L 135.212336 318.558051 
L 137.886867 318.119823 
L 140.561398 317.590536 
L 143.235929 316.954579 
L 145.91046 316.194431 
L 148.584991 315.290586 
L 151.259522 314.221525 
L 153.934053 312.963727 
L 156.608584 311.491734 
L 159.283115 309.77828 
L 161.957646 307.794493 
L 164.632177 305.510174 
L 167.306708 302.894168 
L 169.981239 299.914823 
L 172.65577 296.540545 
L 175.330301 292.740449 
L 178.004832 288.485094 
L 180.679363 283.747312 
L 183.353893 278.503098 
L 186.028424 272.732561 
L 188.702955 266.42091 
L 191.377486 259.559451 
L 194.052017 252.146566 
L 194.052017 320.4 
z
" clip-path="url(#p552f99cc5f)" style="fill: #b2b2b2; stroke: #808080; stroke-linejoin: miter"/>
   </g>
   <g id="line2d_3">
    <path d="M 63 320.399016 
L 104.486573 320.286668 
L 116.228056 320.04615 
L 124.055711 319.681113 
L 130.317836 319.168665 
L 135.014429 318.58725 
L 139.711022 317.769609 
L 143.62485 316.852199 
L 146.755912 315.925227 
L 149.886974 314.792205 
L 153.018036 313.417313 
L 156.149098 311.761022 
L 159.28016 309.780317 
L 161.628457 308.054261 
L 163.976754 306.099445 
L 166.32505 303.89487 
L 168.673347 301.419166 
L 171.021643 298.65087 
L 173.36994 295.56874 
L 175.718236 292.152118 
L 178.066533 288.381329 
L 180.41483 284.238122 
L 182.763126 279.706138 
L 185.111423 274.771403 
L 187.459719 269.422846 
L 190.590782 261.635045 
L 193.721844 253.091394 
L 196.852906 243.799404 
L 199.983968 233.783015 
L 203.11503 223.084204 
L 207.028858 208.846203 
L 211.725451 190.714957 
L 217.987575 165.400592 
L 226.597996 130.474226 
L 230.511824 115.414704 
L 233.642886 104.08119 
L 236.773948 93.583196 
L 239.122244 86.365665 
L 241.470541 79.78971 
L 243.818838 73.921478 
L 246.167134 68.821089 
L 247.732665 65.873936 
L 249.298196 63.305592 
L 250.863727 61.128166 
L 252.429259 59.351988 
L 253.99479 57.985528 
L 255.560321 57.035329 
L 257.125852 56.505956 
L 258.691383 56.399953 
L 260.256914 56.717833 
L 261.822445 57.458064 
L 263.387976 58.617088 
L 264.953507 60.189347 
L 266.519038 62.167326 
L 268.084569 64.541616 
L 269.6501 67.300985 
L 271.215631 70.432471 
L 273.563928 75.795073 
L 275.912224 81.906212 
L 278.260521 88.703641 
L 280.608818 96.119449 
L 283.73988 106.843392 
L 286.870942 118.357014 
L 290.78477 133.575899 
L 297.046894 158.984242 
L 304.874549 190.714957 
L 309.571142 208.846203 
L 313.48497 223.084204 
L 316.616032 233.783015 
L 319.747094 243.799404 
L 322.878156 253.091394 
L 326.009218 261.635045 
L 329.140281 269.422846 
L 332.271343 276.461814 
L 334.619639 281.260914 
L 336.967936 285.661625 
L 339.316232 289.678771 
L 341.664529 293.329397 
L 344.012826 296.632278 
L 346.361122 299.607465 
L 348.709419 302.275852 
L 351.057715 304.658794 
L 353.406012 306.777754 
L 355.754309 308.654009 
L 358.102605 310.30838 
L 361.233667 312.203772 
L 364.364729 313.785812 
L 367.495792 315.096673 
L 370.626854 316.174971 
L 374.540681 317.248575 
L 378.454509 318.072853 
L 383.151102 318.803943 
L 388.630461 319.390652 
L 394.892585 319.816368 
L 402.72024 320.116166 
L 414.461723 320.310721 
L 435.596393 320.391135 
L 453.6 320.399016 
L 453.6 320.399016 
" clip-path="url(#p552f99cc5f)" style="fill: none; stroke: #0000ff; stroke-width: 2; stroke-linecap: round"/>
   </g>
   <g id="patch_4">
    <path d="M 63 320.4 
L 63 43.2 
" style="fill: none; stroke: #cccccc; stroke-width: 0.8; stroke-linejoin: miter; stroke-linecap: square"/>
   </g>
   <g id="patch_5">
    <path d="M 453.6 320.4 
L 453.6 43.2 
" style="fill: none; stroke: #cccccc; stroke-width: 0.8; stroke-linejoin: miter; stroke-linecap: square"/>
   </g>
   <g id="patch_6">
    <path d="M 63 320.4 
L 453.6 320.4 
" style="fill: none; stroke: #cccccc; stroke-width: 0.8; stroke-linejoin: miter; stroke-linecap: square"/>
   </g>
   <g id="patch_7">
    <path d="M 63 43.2 
L 453.6 43.2 
" style="fill: none; stroke: #cccccc; stroke-width: 0.8; stroke-linejoin: miter; stroke-linecap: square"/>
   </g>
   <g id="patch_8">
    <path d="M 165.001686 258.626455 
Q 170.770514 275.52258 176.539343 292.418704 
L 181.980911 290.560794 
Q 181.080456 297.208107 180.18 303.85542 
Q 175.402297 299.146796 170.624594 294.438171 
L 176.066163 292.580261 
Q 170.297334 275.684137 164.528506 258.788013 
L 165.001686 258.626455 
z
" style="fill: #46327e; stroke: #ffffff; stroke-linecap: round"/>
   </g>
   <g id="text_5">
    <!-- 2.5% -->
    <g style="fill: #262626" transform="translate(141.12 254.22168) scale(0.1 -0.1)">
     <defs>
      <path id="ArialMT-32" d="M 3222 541 
L 3222 0 
L 194 0 
Q 188 203 259 391 
Q 375 700 629 1000 
Q 884 1300 1366 1694 
Q 2113 2306 2375 2664 
Q 2638 3022 2638 3341 
Q 2638 3675 2398 3904 
Q 2159 4134 1775 4134 
Q 1369 4134 1125 3890 
Q 881 3647 878 3216 
L 300 3275 
Q 359 3922 746 4261 
Q 1134 4600 1788 4600 
Q 2447 4600 2831 4234 
Q 3216 3869 3216 3328 
Q 3216 3053 3103 2787 
Q 2991 2522 2730 2228 
Q 2469 1934 1863 1422 
Q 1356 997 1212 845 
Q 1069 694 975 541 
L 3222 541 
z
" transform="scale(0.015625)"/>
      <path id="ArialMT-2e" d="M 581 0 
L 581 641 
L 1222 641 
L 1222 0 
L 581 0 
z
" transform="scale(0.015625)"/>
      <path id="ArialMT-35" d="M 266 1200 
L 856 1250 
Q 922 819 1161 601 
Q 1400 384 1738 384 
Q 2144 384 2425 690 
Q 2706 997 2706 1503 
Q 2706 1984 2436 2262 
Q 2166 2541 1728 2541 
Q 1456 2541 1237 2417 
Q 1019 2294 894 2097 
L 366 2166 
L 809 4519 
L 3088 4519 
L 3088 3981 
L 1259 3981 
L 1013 2750 
Q 1425 3038 1878 3038 
Q 2478 3038 2890 2622 
Q 3303 2206 3303 1553 
Q 3303 931 2941 478 
Q 2500 -78 1738 -78 
Q 1113 -78 717 272 
Q 322 622 266 1200 
z
" transform="scale(0.015625)"/>
      <path id="ArialMT-25" d="M 372 3481 
Q 372 3972 619 4315 
Q 866 4659 1334 4659 
Q 1766 4659 2048 4351 
Q 2331 4044 2331 3447 
Q 2331 2866 2045 2552 
Q 1759 2238 1341 2238 
Q 925 2238 648 2547 
Q 372 2856 372 3481 
z
M 1350 4272 
Q 1141 4272 1002 4090 
Q 863 3909 863 3425 
Q 863 2984 1003 2804 
Q 1144 2625 1350 2625 
Q 1563 2625 1702 2806 
Q 1841 2988 1841 3469 
Q 1841 3913 1700 4092 
Q 1559 4272 1350 4272 
z
M 1353 -169 
L 3859 4659 
L 4316 4659 
L 1819 -169 
L 1353 -169 
z
M 3334 1075 
Q 3334 1569 3581 1911 
Q 3828 2253 4300 2253 
Q 4731 2253 5014 1945 
Q 5297 1638 5297 1041 
Q 5297 459 5011 145 
Q 4725 -169 4303 -169 
Q 3888 -169 3611 142 
Q 3334 453 3334 1075 
z
M 4316 1866 
Q 4103 1866 3964 1684 
Q 3825 1503 3825 1019 
Q 3825 581 3965 400 
Q 4106 219 4313 219 
Q 4528 219 4667 400 
Q 4806 581 4806 1063 
Q 4806 1506 4665 1686 
Q 4525 1866 4316 1866 
z
" transform="scale(0.015625)"/>
     </defs>
     <use xlink:href="#ArialMT-32"/>
     <use xlink:href="#ArialMT-2e" transform="translate(55.615234 0)"/>
     <use xlink:href="#ArialMT-35" transform="translate(83.398438 0)"/>
     <use xlink:href="#ArialMT-25" transform="translate(139.013672 0)"/>
    </g>
   </g>
  </g>
 </g>
 <defs>
  <clipPath id="p552f99cc5f">
   <rect x="63" y="43.2" width="390.6" height="277.2"/>
  </clipPath>
 </defs>
</svg>
